<svg width="24" height="24" viewBox="0 0 24 24" fill="none" xmlns="http://www.w3.org/2000/svg">
<path d="M10.9919 9.74609C11.6419 9.0191 12 8.04393 12 6.99995C12 5.01222 10.6232 3 7.99128 3C6.76644 3 5.73314 3.43383 5.00293 4.25456C4.35612 4.98166 4 5.95661 4 6.99995C4 8.98789 5.37097 11 7.99128 11C9.22069 11.0001 10.2585 10.5665 10.9919 9.74609ZM7.99128 4.85984C9.43335 4.85984 10.0901 5.96994 10.0901 7.00135C10.0901 7.56242 9.90702 8.08181 9.57428 8.46367C9.20308 8.89019 8.66363 9.11572 8.01466 9.11572C6.53612 9.11572 5.86256 8.00573 5.86256 6.97442C5.86256 5.92204 6.52088 4.85984 7.99128 4.85984Z" fill="#575757"/>
<path d="M17.2852 5.0308C17.0533 5.03512 16.7368 5.18435 16.5817 5.36232L5.07215 18.5723C4.91711 18.7504 5.02694 19 5.2588 19H6.7652C6.99706 19 7.31331 18.854 7.46809 18.6758L18.9065 5.46852C19.0612 5.29013 19.0509 4.99989 18.6678 5L17.2852 5.0308Z" fill="#575757"/>
<path d="M15.9912 13C14.7667 13 13.7333 13.4341 13.0031 14.2547C12.3563 14.9816 12 15.9567 12 17.0001C12 18.9878 13.371 21 15.9912 21C17.2209 21 18.2585 20.5664 18.992 19.746C19.642 19.019 20 18.0438 20 17.0001C19.9999 15.0123 18.623 13 15.9912 13ZM16.0148 19.1644C14.5485 19.1644 13.8803 18.0289 13.8803 16.9743C13.8803 16.4 14.0669 15.8685 14.4058 15.4778C14.7836 15.0417 15.3318 14.8113 15.9912 14.8113C17.4577 14.8113 18.1255 15.9466 18.1255 17.0015C18.1255 17.5757 17.9389 18.1073 17.6003 18.498C17.2224 18.934 16.6741 19.1644 16.0148 19.1644Z" fill="#575757"/>
</svg>
