<svg width="24" height="24" viewBox="0 0 24 24" fill="none" xmlns="http://www.w3.org/2000/svg">
<path d="M8.00002 20.5C7.17113 20.5 6.5 19.8289 6.5 19V8C6.5 7.72386 6.72386 7.5 7 7.5H17C17.2761 7.5 17.5 7.72386 17.5 8V19C17.5 19.8289 16.8289 20.5 16 20.5H8.00002Z" fill="white" stroke="#9D9D9D"/>
<path d="M13.4843 3.5C13.7563 3.5 14.0148 3.61886 14.1918 3.8254C14.5588 4.25357 15.0946 4.49998 15.6586 4.49998H17C17.2761 4.49998 17.5 4.72385 17.5 4.99999C17.5 5.27614 17.2761 5.5 17 5.5H7.00001C6.72386 5.5 6.5 5.27614 6.5 4.99999C6.5 4.72385 6.72386 4.49998 7.00001 4.49998H8.34144C8.90538 4.49998 9.44117 4.25357 9.80819 3.8254C9.98522 3.61886 10.2437 3.5 10.5157 3.5H13.4843Z" fill="white" stroke="#9D9D9D"/>
</svg>
