<svg width="18" height="18" viewBox="0 0 18 18" fill="none" xmlns="http://www.w3.org/2000/svg">
<path d="M16.5556 11.8149C15.4536 11.8149 14.3716 11.6426 13.3462 11.3037C12.835 11.1294 12.2529 11.2647 11.9194 11.6045L9.89547 13.1324C7.54831 11.8794 6.1025 10.4341 4.86669 8.10455L6.34958 6.13336C6.73484 5.74861 6.87303 5.18658 6.70747 4.65923C6.36716 3.62845 6.19428 2.54691 6.19428 1.44441C6.19433 0.647953 5.54638 0 4.74997 0H1.44431C0.647951 0 0 0.647953 0 1.44431C0 10.5733 7.42676 18 16.5556 18C17.352 18 18 17.352 18 16.5556V13.2593C18 12.4629 17.352 11.8149 16.5556 11.8149ZM17 16.5557C17 16.8008 16.8008 17 16.5556 17C7.97801 17 1.00003 10.022 1.00003 1.44436C1.00003 1.19925 1.19925 1.00003 1.44436 1.00003H4.75002C4.99513 1.00003 5.19435 1.19925 5.19435 1.44436C5.19435 2.65383 5.38428 3.84084 5.75586 4.96537C5.80761 5.13141 5.76561 5.30325 5.59766 5.47809L3.8789 7.75439C3.76368 7.9072 3.74558 8.11181 3.83202 8.2822C5.23485 11.0395 6.93945 12.7441 9.71627 14.167C9.88521 14.2553 10.0923 14.2368 10.2456 14.1211L12.5742 12.357C12.6918 12.2393 12.8681 12.1973 13.0273 12.2515C14.1596 12.6255 15.3466 12.815 16.5556 12.815C16.8008 12.815 17 13.0142 17 13.2593V16.5557Z" fill="#575757"/>
</svg>
