<svg width="18" height="16" viewBox="0 0 18 16" fill="none" xmlns="http://www.w3.org/2000/svg">
<path d="M15.5795 2.63702C15.2147 2.27202 14.7816 1.98248 14.3048 1.78494C13.828 1.58739 13.317 1.48572 12.801 1.48572C12.2849 1.48572 11.7739 1.58739 11.2971 1.78494C10.8204 1.98248 10.3872 2.27202 10.0224 2.63702L9.26526 3.39416L8.50811 2.63702C7.77119 1.9001 6.77171 1.4861 5.72954 1.4861C4.68738 1.4861 3.68789 1.9001 2.95097 2.63702C2.21405 3.37394 1.80005 4.37343 1.80005 5.41559C1.80005 6.45776 2.21405 7.45724 2.95097 8.19416L3.70811 8.95131L9.26526 14.5084L14.8224 8.95131L15.5795 8.19416C15.9445 7.82934 16.2341 7.39617 16.4316 6.91942C16.6292 6.44266 16.7308 5.93166 16.7308 5.41559C16.7308 4.89953 16.6292 4.38852 16.4316 3.91177C16.2341 3.43501 15.9445 3.00185 15.5795 2.63702Z" fill="#48185E" stroke="#48185E" stroke-width="2" stroke-linecap="round" stroke-linejoin="round"/>
</svg>
