<svg width="18" height="10" viewBox="0 0 18 10" fill="none" xmlns="http://www.w3.org/2000/svg">
<path d="M16.5417 1.44224H6.79265C6.52462 0.604941 5.77166 0 4.88637 0C4.00108 0 3.24812 0.604941 2.98009 1.44224H1.45833C1.10483 1.44224 0.818237 1.74368 0.818237 2.1155C0.818237 2.48731 1.10483 2.78875 1.45833 2.78875H2.98013C3.24816 3.62606 4.00112 4.231 4.88641 4.231C5.7717 4.231 6.52467 3.62606 6.79269 2.78875H16.5418C16.8953 2.78875 17.1819 2.48731 17.1819 2.1155C17.1819 1.74368 16.8953 1.44224 16.5417 1.44224ZM4.88637 2.88449C4.48324 2.88449 4.15526 2.53951 4.15526 2.1155C4.15526 1.69148 4.48324 1.34651 4.88637 1.34651C5.2895 1.34651 5.61748 1.69148 5.61748 2.1155C5.61748 2.53951 5.2895 2.88449 4.88637 2.88449Z" fill="#48185E"/>
<path d="M16.5417 7.21124H15.0199C14.7519 6.37394 13.9989 5.769 13.1137 5.769C12.2284 5.769 11.4754 6.37394 11.2074 7.21124H1.45833C1.10483 7.21124 0.818237 7.51268 0.818237 7.8845C0.818237 8.25631 1.10483 8.55775 1.45833 8.55775H11.2074C11.4754 9.39505 12.2284 10 13.1137 10C13.9989 10 14.752 9.39505 15.02 8.55775H16.5418C16.8953 8.55775 17.1819 8.25631 17.1819 7.8845C17.1819 7.51268 16.8953 7.21124 16.5417 7.21124ZM13.1137 8.65349C12.7106 8.65349 12.3826 8.30851 12.3826 7.8845C12.3826 7.46048 12.7106 7.11551 13.1137 7.11551C13.5168 7.11551 13.8448 7.46048 13.8448 7.8845C13.8448 8.30851 13.5168 8.65349 13.1137 8.65349Z" fill="#48185E"/>
</svg>
