<svg width="24" height="24" viewBox="0 0 24 24" fill="none" xmlns="http://www.w3.org/2000/svg">
<path d="M12 17C12.5523 17 13 16.5523 13 16C13 15.4477 12.5523 15 12 15C11.4477 15 11 15.4477 11 16C11 16.5523 11.4477 17 12 17Z" fill="#575757"/>
<path d="M12 3C7.02595 3 3 7.02528 3 12C3 16.974 7.02528 21 12 21C16.974 21 21 16.9747 21 12C21 7.02595 16.9747 3 12 3ZM12 19.5938C7.80315 19.5938 4.40625 16.1974 4.40625 12C4.40625 7.80315 7.80259 4.40625 12 4.40625C16.1968 4.40625 19.5938 7.80259 19.5938 12C19.5938 16.1968 16.1974 19.5938 12 19.5938Z" fill="#575757"/>
<path d="M12 7C10.3458 7 9 8.19627 9 9.66667C9 10.0349 9.33577 10.3333 9.75 10.3333C10.1642 10.3333 10.5 10.0349 10.5 9.66667C10.5 8.93147 11.1729 8.33333 12 8.33333C12.8271 8.33333 13.5 8.93147 13.5 9.66667C13.5 10.4019 12.8271 11 12 11C11.5858 11 11.25 11.2985 11.25 11.6667V13.3333C11.25 13.7015 11.5858 14 12 14C12.4142 14 12.75 13.7015 12.75 13.3333V12.249C14.0425 11.9522 15 10.907 15 9.66667C15 8.19627 13.6542 7 12 7Z" fill="#575757"/>
</svg>
