<svg width="24" height="24" viewBox="0 0 24 24" fill="none" xmlns="http://www.w3.org/2000/svg">
<path d="M12 2C6.486 2 2 6.48606 2 12.0001C2 17.5141 6.486 22 12 22C17.514 22 22 17.5141 22 12.0001C22 6.48606 17.514 2 12 2ZM12 20.1818C7.48848 20.1818 3.81818 16.5115 3.81818 12.0001C3.81818 7.48861 7.48848 3.81818 12 3.81818C16.5115 3.81818 20.1818 7.48861 20.1818 12.0001C20.1818 16.5115 16.5115 20.1818 12 20.1818Z" fill="#575757"/>
<path d="M12 6.24243C11.3317 6.24243 10.7881 6.78643 10.7881 7.4551C10.7881 8.12316 11.3317 8.66667 12 8.66667C12.6682 8.66667 13.2118 8.12316 13.2118 7.4551C13.2118 6.78643 12.6682 6.24243 12 6.24243Z" fill="#575757"/>
<path d="M11.9999 10.4848C11.4979 10.4848 11.0908 10.8919 11.0908 11.3939V16.8485C11.0908 17.3505 11.4979 17.7576 11.9999 17.7576C12.502 17.7576 12.909 17.3505 12.909 16.8485V11.3939C12.909 10.8919 12.502 10.4848 11.9999 10.4848Z" fill="#575757"/>
</svg>
