<svg width="24" height="24" viewBox="0 0 24 24" fill="none" xmlns="http://www.w3.org/2000/svg">
<path d="M4.47018 12.1701C4.28018 12.1701 4.09018 12.1001 3.94018 11.9501L2.73018 10.7401L1.52017 11.9501C1.23017 12.2401 0.750176 12.2401 0.460176 11.9501C0.170176 11.6601 0.170176 11.1801 0.460176 10.8901L2.20017 9.15012C2.49017 8.86012 2.97018 8.86012 3.26018 9.15012L5.00018 10.8901C5.29018 11.1801 5.29018 11.6601 5.00018 11.9501C4.86018 12.1001 4.66018 12.1701 4.47018 12.1701Z" fill="#23AA49"/>
<path d="M21.26 15.07C21.07 15.07 20.88 15 20.73 14.85L18.99 13.11C18.7 12.82 18.7 12.34 18.99 12.05C19.28 11.76 19.76 11.76 20.05 12.05L21.26 13.26L22.47 12.05C22.76 11.76 23.24 11.76 23.53 12.05C23.82 12.34 23.82 12.82 23.53 13.11L21.79 14.85C21.65 14.99 21.45 15.07 21.26 15.07Z" fill="#23AA49"/>
<path d="M21.2601 15.07C20.8501 15.07 20.5101 14.73 20.5101 14.32V12C20.5101 7.31 16.6901 3.48999 12.0001 3.48999C9.41005 3.48999 6.99005 4.64999 5.36005 6.67999C5.10005 6.99999 4.63005 7.04999 4.31005 6.79999C3.99005 6.53999 3.93006 6.07 4.19005 5.75C6.10005 3.36 8.95005 2 12.0001 2C17.5201 2 22.0101 6.49001 22.0101 12.01V14.33C22.0101 14.73 21.6801 15.07 21.2601 15.07Z" fill="#23AA49"/>
<path d="M12.0002 22.0099C6.48024 22.0099 1.99023 17.5199 1.99023 11.9999V9.67993C1.99023 9.26993 2.33023 8.92993 2.74023 8.92993C3.15023 8.92993 3.49023 9.26993 3.49023 9.67993V11.9999C3.49023 16.6899 7.31024 20.5099 12.0002 20.5099C14.5902 20.5099 17.0102 19.3499 18.6402 17.3199C18.9002 16.9999 19.3702 16.94 19.6902 17.2C20.0102 17.46 20.0702 17.9299 19.8102 18.2499C17.9002 20.6399 15.0502 22.0099 12.0002 22.0099Z" fill="#23AA49"/>
<path d="M9.37931 15L11.4273 9.4H12.5793L14.6273 15H13.5393L13.0913 13.704H10.9073L10.4513 15H9.37931ZM11.1873 12.904H12.8113L11.9953 10.576L11.1873 12.904Z" fill="#23AA49"/>
</svg>
