<svg width="22" height="22" viewBox="0 0 22 22" fill="none" xmlns="http://www.w3.org/2000/svg">
<path d="M11.9191 0.980964C11.6753 0.737252 11.3447 0.600342 11 0.600342C10.6553 0.600342 10.3247 0.737252 10.0809 0.980964L0.980892 10.081C0.744087 10.3261 0.613054 10.6545 0.616016 10.9954C0.618978 11.3362 0.755698 11.6623 0.996728 11.9033C1.23776 12.1444 1.56381 12.2811 1.90467 12.284C2.24553 12.287 2.57391 12.156 2.81909 11.9192L3.19999 11.5383V20.1001C3.19999 20.4448 3.33696 20.7755 3.58075 21.0193C3.82455 21.2631 4.15521 21.4001 4.49999 21.4001H7.09999C7.44477 21.4001 7.77543 21.2631 8.01923 21.0193C8.26303 20.7755 8.39999 20.4448 8.39999 20.1001V17.5001C8.39999 17.1553 8.53696 16.8246 8.78075 16.5808C9.02455 16.337 9.35521 16.2001 9.69999 16.2001H12.3C12.6448 16.2001 12.9754 16.337 13.2192 16.5808C13.463 16.8246 13.6 17.1553 13.6 17.5001V20.1001C13.6 20.4448 13.737 20.7755 13.9808 21.0193C14.2246 21.2631 14.5552 21.4001 14.9 21.4001H17.5C17.8448 21.4001 18.1754 21.2631 18.4192 21.0193C18.663 20.7755 18.8 20.4448 18.8 20.1001V11.5383L19.1809 11.9192C19.4261 12.156 19.7545 12.287 20.0953 12.284C20.4362 12.2811 20.7622 12.1444 21.0033 11.9033C21.2443 11.6623 21.381 11.3362 21.384 10.9954C21.3869 10.6545 21.2559 10.3261 21.0191 10.081L11.9191 0.980964Z" fill="#48185E"/>
</svg>
