<svg width="22" height="20" viewBox="0 0 22 20" fill="none" xmlns="http://www.w3.org/2000/svg">
<path d="M4.02983 2.04508C4.44795 1.93171 4.87929 1.87452 5.3125 1.875H16.6875C17.1317 1.875 17.5607 1.93458 17.9691 2.04508C17.699 1.50556 17.284 1.05188 16.7707 0.734839C16.2573 0.417799 15.6659 0.24992 15.0625 0.25H6.9375C6.33396 0.249719 5.74226 0.417504 5.2287 0.734554C4.71515 1.05161 4.30002 1.5054 4.02983 2.04508ZM0.4375 10C0.4375 9.13805 0.77991 8.3114 1.3894 7.7019C1.9989 7.09241 2.82555 6.75 3.6875 6.75H18.3125C19.1745 6.75 20.0011 7.09241 20.6106 7.7019C21.2201 8.3114 21.5625 9.13805 21.5625 10V16.5C21.5625 17.362 21.2201 18.1886 20.6106 18.7981C20.0011 19.4076 19.1745 19.75 18.3125 19.75H3.6875C2.82555 19.75 1.9989 19.4076 1.3894 18.7981C0.77991 18.1886 0.4375 17.362 0.4375 16.5V10ZM3.6875 5.125C3.24333 5.125 2.81433 5.18458 2.40483 5.29508C2.67502 4.7554 3.09015 4.30161 3.6037 3.98455C4.11726 3.6675 4.70896 3.49972 5.3125 3.5H16.6875C17.2909 3.49992 17.8823 3.6678 18.3957 3.98484C18.909 4.30188 19.324 4.75556 19.5941 5.29508C19.1763 5.18181 18.7453 5.12461 18.3125 5.125H3.6875Z" fill="#A3A3A3"/>
</svg>
