<svg width="22" height="22" viewBox="0 0 22 22" fill="none" xmlns="http://www.w3.org/2000/svg">
<path d="M6.58333 17.5001C5.39167 17.5001 4.4275 18.4751 4.4275 19.6667C4.4275 20.8584 5.39167 21.8334 6.58333 21.8334C7.775 21.8334 8.75 20.8584 8.75 19.6667C8.75 18.4751 7.775 17.5001 6.58333 17.5001ZM0.083333 0.166748V2.33341H2.25L6.15 10.5559L4.6875 13.2101C4.51417 13.5134 4.41667 13.8709 4.41667 14.2501C4.41667 15.4417 5.39167 16.4167 6.58333 16.4167H19.5833V14.2501H7.03833C6.88667 14.2501 6.7675 14.1309 6.7675 13.9792L6.8 13.8492L7.775 12.0834H15.8458C16.6583 12.0834 17.3733 11.6392 17.7417 10.9676L21.62 3.93675C21.7094 3.77142 21.7544 3.58573 21.7505 3.39782C21.7467 3.20991 21.6942 3.02622 21.5981 2.86467C21.5021 2.70312 21.3657 2.56925 21.2025 2.47614C21.0392 2.38302 20.8546 2.33385 20.6667 2.33341H4.64417L3.62583 0.166748H0.083333ZM17.4167 17.5001C16.225 17.5001 15.2608 18.4751 15.2608 19.6667C15.2608 20.8584 16.225 21.8334 17.4167 21.8334C18.6083 21.8334 19.5833 20.8584 19.5833 19.6667C19.5833 18.4751 18.6083 17.5001 17.4167 17.5001Z" fill="#A3A3A3"/>
</svg>
