<svg width="26" height="26" viewBox="0 0 26 26" fill="none" xmlns="http://www.w3.org/2000/svg">
<g clip-path="url(#clip0_562_1478)">
<path d="M7.58325 19.5C6.39158 19.5 5.42742 20.475 5.42742 21.6667C5.42742 22.8584 6.39158 23.8334 7.58325 23.8334C8.77492 23.8334 9.74992 22.8584 9.74992 21.6667C9.74992 20.475 8.77492 19.5 7.58325 19.5ZM1.08325 2.16669V4.33335H3.24992L7.14992 12.5559L5.68742 15.21C5.51408 15.5134 5.41658 15.8709 5.41658 16.25C5.41658 17.4417 6.39158 18.4167 7.58325 18.4167H20.5833V16.25H8.03825C7.88658 16.25 7.76742 16.1309 7.76742 15.9792L7.79992 15.8492L8.77492 14.0834H16.8458C17.6583 14.0834 18.3732 13.6392 18.7416 12.9675L22.6199 5.93669C22.7093 5.77136 22.7543 5.58567 22.7504 5.39776C22.7466 5.20985 22.6941 5.02615 22.598 4.86461C22.502 4.70306 22.3657 4.56919 22.2024 4.47608C22.0391 4.38296 21.8545 4.33379 21.6666 4.33335H5.64408L4.62575 2.16669H1.08325ZM18.4166 19.5C17.2249 19.5 16.2608 20.475 16.2608 21.6667C16.2608 22.8584 17.2249 23.8334 18.4166 23.8334C19.6083 23.8334 20.5833 22.8584 20.5833 21.6667C20.5833 20.475 19.6083 19.5 18.4166 19.5Z" fill="#48185E"/>
<circle cx="18" cy="5.80005" r="5.5" fill="#48185E" stroke="white"/>
</g>
<defs>
<clipPath id="clip0_562_1478">
<rect width="26" height="26" fill="white"/>
</clipPath>
</defs>
</svg>
