<svg width="26" height="26" viewBox="0 0 26 26" fill="none" xmlns="http://www.w3.org/2000/svg">
<g clip-path="url(#clip0_229_825)">
<path d="M7.58333 19.5001C6.39167 19.5001 5.4275 20.4751 5.4275 21.6667C5.4275 22.8584 6.39167 23.8334 7.58333 23.8334C8.775 23.8334 9.75 22.8584 9.75 21.6667C9.75 20.4751 8.775 19.5001 7.58333 19.5001ZM1.08333 2.16675V4.33341H3.25L7.15 12.5559L5.6875 15.2101C5.51417 15.5134 5.41667 15.8709 5.41667 16.2501C5.41667 17.4417 6.39167 18.4167 7.58333 18.4167H20.5833V16.2501H8.03833C7.88667 16.2501 7.7675 16.1309 7.7675 15.9792L7.8 15.8492L8.775 14.0834H16.8458C17.6583 14.0834 18.3733 13.6392 18.7417 12.9676L22.62 5.93675C22.7094 5.77142 22.7544 5.58573 22.7505 5.39782C22.7467 5.20991 22.6942 5.02622 22.5981 4.86467C22.5021 4.70312 22.3657 4.56925 22.2025 4.47614C22.0392 4.38302 21.8546 4.33385 21.6667 4.33341H5.64417L4.62583 2.16675H1.08333ZM18.4167 19.5001C17.225 19.5001 16.2608 20.4751 16.2608 21.6667C16.2608 22.8584 17.225 23.8334 18.4167 23.8334C19.6083 23.8334 20.5833 22.8584 20.5833 21.6667C20.5833 20.4751 19.6083 19.5001 18.4167 19.5001Z" fill="#A3A3A3"/>
<circle cx="18" cy="5.80005" r="5.5" fill="#48185E" stroke="white"/>
</g>
<defs>
<clipPath id="clip0_229_825">
<rect width="26" height="26" fill="white"/>
</clipPath>
</defs>
</svg>
