<svg width="26" height="27" viewBox="0 0 26 27" fill="none" xmlns="http://www.w3.org/2000/svg">
<path d="M20.1277 8.19012C19.7325 7.7947 19.2632 7.48103 18.7468 7.26703C18.2303 7.05302 17.6767 6.94287 17.1176 6.94287C16.5586 6.94287 16.005 7.05302 15.4885 7.26703C14.972 7.48103 14.5027 7.7947 14.1075 8.19012L13.2873 9.01036L12.467 8.19012C11.6687 7.39178 10.5859 6.94328 9.4569 6.94328C8.32789 6.94328 7.24512 7.39178 6.44678 8.19012C5.64845 8.98845 5.19995 10.0712 5.19995 11.2002C5.19995 12.3292 5.64845 13.412 6.44678 14.2104L7.26702 15.0306L13.2873 21.0508L19.3075 15.0306L20.1277 14.2104C20.5231 13.8151 20.8368 13.3459 21.0508 12.8294C21.2648 12.3129 21.375 11.7593 21.375 11.2002C21.375 10.6412 21.2648 10.0876 21.0508 9.57109C20.8368 9.05461 20.5231 8.58534 20.1277 8.19012Z" fill="#48185E" stroke="#48185E" stroke-width="2" stroke-linecap="round" stroke-linejoin="round"/>
<circle cx="18" cy="6.80005" r="5.5" fill="#48185E" stroke="white"/>
</svg>
