<svg width="19" height="18" viewBox="0 0 19 18" fill="none" xmlns="http://www.w3.org/2000/svg">
<path d="M16.1278 3.19012C15.7326 2.7947 15.2633 2.48103 14.7468 2.26703C14.2303 2.05302 13.6767 1.94287 13.1177 1.94287C12.5586 1.94287 12.005 2.05302 11.4885 2.26703C10.972 2.48103 10.5028 2.7947 10.1075 3.19012L9.28731 4.01036L8.46707 3.19012C7.66874 2.39178 6.58596 1.94328 5.45695 1.94328C4.32793 1.94328 3.24516 2.39178 2.44683 3.19012C1.6485 3.98845 1.2 5.07122 1.2 6.20024C1.2 7.32925 1.6485 8.41202 2.44683 9.21036L3.26707 10.0306L9.28731 16.0508L15.3075 10.0306L16.1278 9.21036C16.5232 8.81513 16.8369 8.34587 17.0509 7.82938C17.2649 7.31289 17.375 6.7593 17.375 6.20024C17.375 5.64117 17.2649 5.08758 17.0509 4.57109C16.8369 4.05461 16.5232 3.58534 16.1278 3.19012Z" fill="#A3A3A3" stroke="#A3A3A3" stroke-width="2" stroke-linecap="round" stroke-linejoin="round"/>
</svg>
