<svg width="26" height="27" viewBox="0 0 26 27" fill="none" xmlns="http://www.w3.org/2000/svg">
<path d="M20.1278 8.19012C19.7326 7.7947 19.2633 7.48103 18.7468 7.26703C18.2303 7.05302 17.6767 6.94287 17.1177 6.94287C16.5586 6.94287 16.005 7.05302 15.4885 7.26703C14.972 7.48103 14.5028 7.7947 14.1075 8.19012L13.2873 9.01036L12.4671 8.19012C11.6687 7.39178 10.586 6.94328 9.45695 6.94328C8.32793 6.94328 7.24516 7.39178 6.44683 8.19012C5.6485 8.98845 5.2 10.0712 5.2 11.2002C5.2 12.3292 5.6485 13.412 6.44683 14.2104L7.26707 15.0306L13.2873 21.0508L19.3075 15.0306L20.1278 14.2104C20.5232 13.8151 20.8369 13.3459 21.0509 12.8294C21.2649 12.3129 21.375 11.7593 21.375 11.2002C21.375 10.6412 21.2649 10.0876 21.0509 9.57109C20.8369 9.05461 20.5232 8.58534 20.1278 8.19012Z" fill="#A3A3A3" stroke="#A3A3A3" stroke-width="2" stroke-linecap="round" stroke-linejoin="round"/>
<circle cx="18" cy="6.80005" r="5.5" fill="#48185E" stroke="white"/>
</svg>
