<svg width="20" height="21" viewBox="0 0 20 21" fill="none" xmlns="http://www.w3.org/2000/svg">
<path fill-rule="evenodd" clip-rule="evenodd" d="M9.99999 8.6999C11.0343 8.6999 12.0263 8.28901 12.7577 7.55762C13.4891 6.82623 13.9 5.83425 13.9 4.7999C13.9 3.76556 13.4891 2.77358 12.7577 2.04219C12.0263 1.31079 11.0343 0.899902 9.99999 0.899902C8.96565 0.899902 7.97367 1.31079 7.24228 2.04219C6.51089 2.77358 6.09999 3.76556 6.09999 4.7999C6.09999 5.83425 6.51089 6.82623 7.24228 7.55762C7.97367 8.28901 8.96565 8.6999 9.99999 8.6999ZM0.899994 20.3999C0.899994 19.2049 1.13537 18.0215 1.59269 16.9175C2.05001 15.8134 2.72031 14.8102 3.56532 13.9652C4.41034 13.1202 5.41351 12.4499 6.51758 11.9926C7.62164 11.5353 8.80497 11.2999 9.99999 11.2999C11.195 11.2999 12.3784 11.5353 13.4824 11.9926C14.5865 12.4499 15.5897 13.1202 16.4347 13.9652C17.2797 14.8102 17.95 15.8134 18.4073 16.9175C18.8646 18.0215 19.1 19.2049 19.1 20.3999H0.899994Z" fill="#A3A3A3"/>
</svg>
