<svg width="20" height="20" viewBox="0 0 20 20" fill="none" xmlns="http://www.w3.org/2000/svg">
<path d="M9.22346 16.6739L6.33915 13.8478C5.98786 13.5036 5.90947 13.1098 6.10397 12.6663C6.29774 12.2221 6.64423 12 7.14343 12H12.8566C13.3558 12 13.7023 12.2221 13.896 12.6663C14.0905 13.1098 14.0121 13.5036 13.6608 13.8478L10.7765 16.6739C10.6656 16.7826 10.5454 16.8641 10.416 16.9185C10.2866 16.9728 10.1479 17 10 17C9.85209 17 9.71342 16.9728 9.58399 16.9185C9.45457 16.8641 9.33439 16.7826 9.22346 16.6739Z" fill="#48185E"/>
<path d="M10.7765 3.32609L13.6608 6.15217C14.0121 6.49638 14.0905 6.89022 13.896 7.3337C13.7023 7.7779 13.3558 8 12.8566 8L7.14343 8C6.64423 8 6.29774 7.7779 6.10397 7.3337C5.90947 6.89022 5.98786 6.49638 6.33916 6.15217L9.22346 3.32609C9.33439 3.21739 9.45457 3.13587 9.584 3.08152C9.71342 3.02717 9.85209 3 10 3C10.1479 3 10.2866 3.02717 10.416 3.08152C10.5454 3.13587 10.6656 3.21739 10.7765 3.32609Z" fill="#48185E"/>
</svg>
